<?xml version="1.0" encoding="UTF-8" standalone="no"?>
<!-- Created with Inkscape (http://www.inkscape.org/) -->

<svg
   width="512"
   height="512"
   viewBox="0 0 135.46669 135.46669"
   version="1.1"
   id="svg1"
   inkscape:version="1.3 (0e150ed6c4, 2023-07-21)"
   sodipodi:docname="leornian.svg"
   xml:space="preserve"
   xmlns:inkscape="http://www.inkscape.org/namespaces/inkscape"
   xmlns:sodipodi="http://sodipodi.sourceforge.net/DTD/sodipodi-0.dtd"
   xmlns="http://www.w3.org/2000/svg"
   xmlns:svg="http://www.w3.org/2000/svg"><sodipodi:namedview
     id="namedview1"
     pagecolor="#ffffff"
     bordercolor="#666666"
     borderopacity="1.0"
     inkscape:showpageshadow="2"
     inkscape:pageopacity="0.0"
     inkscape:pagecheckerboard="0"
     inkscape:deskcolor="#d1d1d1"
     inkscape:document-units="px"
     showgrid="false"
     inkscape:zoom="1.4142136"
     inkscape:cx="222.03152"
     inkscape:cy="248.19447"
     inkscape:window-width="2132"
     inkscape:window-height="1404"
     inkscape:window-x="1053"
     inkscape:window-y="299"
     inkscape:window-maximized="0"
     inkscape:current-layer="layer1" /><defs
     id="defs1" /><g
     inkscape:label="Layer 1"
     inkscape:groupmode="layer"
     id="layer1"><path
       id="path1"
       style="fill:#333333;fill-opacity:1;stroke:none;stroke-width:0.999999px;stroke-linecap:butt;stroke-linejoin:miter;stroke-opacity:1"
       d="M 62.140141,3.2996008e-7 C 61.865799,0.31192243 61.591672,0.62424099 61.317332,0.93616309 57.194405,5.7423392 52.961202,10.458219 48.296564,14.768305 c -3.400519,3.225692 -6.735703,6.918725 -7.897476,11.58545 -1.179018,4.694192 -0.222149,9.584976 1.090284,14.141876 -0.808354,0.517524 -1.407058,1.305437 -2.222827,1.82062 -7.804224,0.04898 -15.660603,2.461292 -21.900145,7.204427 -3.623811,-0.104879 -6.82545,2.578596 -8.1778772,5.80938 -1.4041731,3.00151 -1.1732375,6.953044 1.2289932,9.388476 0.567231,0.309066 0.24579,1.077926 0.418614,1.59441 1.598877,15.341393 8.676227,26.502135 13.59549,29.419277 -2.699621,3.421649 -4.54357,7.491259 -5.350993,11.773379 -1.196263,5.89195 -0.744312,11.95754 -0.171025,17.88653 -0.132031,0.60442 0.317175,1.42573 1.016207,1.13403 5.426659,-1.46835 11.119765,-2.73752 15.743743,-6.11663 3.770364,-2.43112 5.868147,-6.90137 5.999794,-11.31151 0.100533,-2.3 -0.167223,-4.73073 0.786516,-6.89171 0.599091,-1.11475 1.509835,-2.279356 2.79954,-2.582775 0.410859,0.02492 1.171436,-0.226789 0.624937,0.306758 -2.247162,3.525317 -3.235128,7.735807 -3.231079,11.890207 -0.0096,6.55986 2.000655,12.93941 4.725062,18.84606 0.728397,1.61427 1.509615,3.20359 2.276024,4.80013 2.339437,-5.09924 4.823591,-10.09688 8.60892,-14.28158 3.339837,-3.74035 7.425443,-6.83077 12.017487,-8.86645 1.334174,-0.59204 2.819803,-1.14326 4.237342,-1.56507 2.876306,-1.06807 5.497031,-2.83701 7.51963,-5.14866 0.593855,4.49681 2.443671,8.83476 5.421094,12.27254 2.027425,2.50093 4.296398,4.79181 6.449232,7.18305 0.916263,-6.11423 2.275939,-12.23312 4.421293,-17.98646 0.723432,-1.9844 1.594051,-4.00135 2.525106,-5.93566 0.11229,1.78983 1.89399,3.34285 3.69792,2.91886 1.6325,-0.33885 2.44749,-2.00557 3.12667,-3.35985 1.76435,-3.647046 3.7,-7.251723 6.23297,-10.431524 1.91554,-2.297596 4.1794,-4.734079 7.15769,-5.70249 0.5544,-0.200842 1.13213,-0.323158 1.70428,-0.460873 1.87813,-6.135215 2.8472,-12.807904 1.12708,-19.095633 -0.16367,-0.584619 -0.34231,-1.16532 -0.55236,-1.735108 1.26654,1.141147 2.5331,2.282013 3.79935,3.423482 C 124.76396,58.1597 122.64386,49.363783 117.95941,41.732082 111.03514,30.255457 100.26649,20.984628 87.571156,16.511865 83.324666,15.055519 78.881964,14.074161 74.388313,13.880367 69.972781,13.679604 65.513334,14.644192 61.58779,16.678912 62.590174,12.875858 62.795744,8.8986439 62.410599,4.9930345 62.320626,3.3287465 62.23087,1.6642473 62.140141,3.2996008e-7 Z"
       sodipodi:nodetypes="cccccccccccccccccccccccccccccccccccccccccccc" /><path
       id="path2"
       style="fill:#e5e5e5;fill-opacity:1;stroke:none;stroke-width:0.999999px;stroke-linecap:butt;stroke-linejoin:miter;stroke-opacity:1"
       d="m 41.907974,44.801872 5.50204,-4.750434 c 5.865649,-0.48279 9.561483,4.182365 10.897971,7.996002 -6.167007,-3.472343 -9.454084,-3.644568 -16.400011,-3.245568 z m 8.00144,39.148066 c -2.158131,-5.302666 -14.712851,-0.194479 -25.245273,7.445069 0,0 -6.420988,-5.052701 -5.122047,-11.690634 18.340195,1.495058 29.469849,-0.436601 34.128032,-17.338966 16.91664,9.57603 1.788733,18.111984 -3.760712,21.584531 z m -0.165419,43.259272 c 0,0 -7.465167,-15.79762 -0.724855,-25.51553 26.477574,-4.801206 27.129778,-32.433246 27.129778,-32.433246 0,0 17.708899,31.712996 -4.115851,38.590766 -15.316783,4.82688 -22.289061,19.35801 -22.289072,19.35801 z M 17.210685,78.253857 c 0,0 -2.813915,-7.914392 -3.083705,-15.256782 -5.1607815,-2.290971 -0.518059,-11.508897 4.200706,-9.703812 9.788751,-8.298772 22.080565,-7.410919 22.080565,-7.410919 -11.001007,9.864247 -12.937191,5.059169 -22.072825,12.402663 0.767105,12.634681 9.404384,16.487361 19.923485,17.87312 0,0 -18.566414,-1.514171 -21.048226,2.09573 z M 44.301623,37.146669 c -3.768148,-14.6531 5.023792,-16.916146 14.738856,-28.2269559 0,0 0.475188,5.8310139 -3.856736,14.7434269 -2.794246,5.74881 -7.81901,7.867828 -10.88212,13.483529 z M 120.26874,55.706525 C 96.814869,34.445026 86.641798,29.196782 73.374466,26.951542 59.086578,24.910415 52.425688,32.003607 52.425688,32.003607 60.181973,14.245799 76.740811,17.655971 76.740811,17.655971 95.268017,19.572192 114.10033,35.010375 120.26874,55.706525 Z m -15.9822,43.882414 C 107.3062,53.670743 78.463352,47.823041 72.509764,34.913201 c -3.944453,-8.553203 17.614296,1.791024 28.397376,9.32944 17.013,11.893739 23.45492,20.643155 18.96445,36.972172 -8.98097,2.653466 -15.58505,18.374126 -15.58505,18.374126 z M 91.698685,117.37006 c -6.531609,-7.14394 -7.452317,-12.48539 -5.501744,-28.469193 1.3649,-11.184566 -8.765246,-16.28749 -3.464142,-35.374231 0,0 15.144469,15.385728 17.582391,27.959741 2.84052,14.650468 -4.738355,16.288857 -8.616505,35.883683 z m -69.486406,4.85242 C 20.425464,103.7162 25.7814,97.349777 37.039102,88.978666 62.116258,92.773371 71.705576,67.407115 71.705576,67.407115 c 0,0 1.408632,27.333784 -28.089442,28.78305 -12.989656,7.793795 5.249186,19.316395 -21.403855,26.032315 z"
       sodipodi:nodetypes="ccccccccccccsccccccccccscccccccsscccscscccccc" /></g></svg>
